<svg xmlns="http://www.w3.org/2000/svg" width="1060" height="1600" viewBox="0 0 1060 1600">
<defs>
 <linearGradient id="blue" x1="0" y1="1" x2="1" y2="0"><stop stop-color="#153e57"/><stop offset=".55" stop-color="#207da6"/><stop offset="1" stop-color="#74b5cb"/></linearGradient>
 <radialGradient id="glow"><stop stop-color="#d0f2ff" stop-opacity=".3"/><stop offset="1" stop-color="#d0f2ff" stop-opacity="0"/></radialGradient>
 <clipPath id="card"><rect x="40" y="30" width="980" height="1490" rx="58"/></clipPath>
</defs>
<rect x="40" y="30" width="980" height="1490" rx="58" fill="none" stroke="#e8edef" stroke-width="36"/>
<rect x="40" y="30" width="980" height="1490" rx="58" fill="url(#blue)"/>
<g clip-path="url(#card)">
 <ellipse cx="1070" cy="40" rx="830" ry="800" fill="url(#glow)"/>
 <g fill="none" stroke="#e2f8ff" stroke-width="2" opacity=".25">
  <ellipse cx="1040" cy="40" rx="280" ry="350" transform="rotate(-25 1040 40)"/>
  <ellipse cx="1040" cy="40" rx="390" ry="480" transform="rotate(-25 1040 40)"/>
  <ellipse cx="1040" cy="40" rx="500" ry="610" transform="rotate(-25 1040 40)"/>
 </g>
 <path d="M-150 1160 Q350 1000 1100 1280 L1100 1600 L-150 1600Z" fill="#123c53" opacity=".22"/>
 <path d="M145 1030 H915" stroke="#d7f3ff" opacity=".45" stroke-width="2"/>
 <rect x="140" y="1150" width="780" height="285" rx="26" fill="#f6fcff"/>
 <path d="M831 1280h36m-14-14 14 14-14 14" fill="none" stroke="#287b9f" stroke-width="5" stroke-linecap="round" stroke-linejoin="round"/>
</g>
<rect x="54" y="44" width="952" height="1462" rx="48" fill="none" stroke="#ffffff" stroke-opacity=".28" stroke-width="2"/>
</svg>
